<?xml version="1.0" standalone="no"?>
<!DOCTYPE svg PUBLIC "-//W3C//DTD SVG 20010904//EN"
 "http://www.w3.org/TR/2001/REC-SVG-20010904/DTD/svg10.dtd">
<svg version="1.0" xmlns="http://www.w3.org/2000/svg"
 width="200.000000pt" height="200.000000pt" viewBox="0 0 200.000000 200.000000"
 preserveAspectRatio="xMidYMid meet">
<metadata>
Created by potrace 1.11, written by Peter Selinger 2001-2013
</metadata>
<g transform="translate(0.000000,200.000000) scale(0.100000,-0.100000)"
fill="#000000" stroke="none">
<path d="M137 1985 c-19 -10 -26 -10 -22 -2 4 7 0 4 -8 -5 -8 -10 -17 -18 -21
-18 -4 0 -18 -12 -32 -27 -56 -60 -54 -25 -51 -947 2 -925 -1 -870 58 -926 63
-61 7 -57 938 -57 692 0 858 2 880 13 32 16 99 74 85 74 -5 0 -4 4 1 8 34 24
35 52 32 915 l-2 852 -29 42 c-18 27 -46 51 -79 68 l-51 25 -835 0 c-711 0
-840 -2 -864 -15z"/>
</g>
</svg>
